<?xml version="1.0" encoding="UTF-8"?>
<svg xmlns="http://www.w3.org/2000/svg" xmlns:xlink="http://www.w3.org/1999/xlink" viewBox="0 0 48 48" width="48px" height="48px">
<g id="surface4843533">
<path style=" stroke:none;fill-rule:nonzero;fill:rgb(1.960784%,14.901961%,23.137255%);fill-opacity:1;" d="M 24 48 C 10.746094 48 0 37.253906 0 24 C 0 10.746094 10.746094 0 24 0 C 37.253906 0 48 10.746094 48 24 C 48 37.253906 37.253906 48 24 48 Z M 24 48 "/>
<path style=" stroke:none;fill-rule:nonzero;fill:rgb(100%,100%,100%);fill-opacity:1;" d="M 18 8.800781 C 12.933594 8.800781 8.800781 12.933594 8.800781 18 L 8.800781 30 C 8.800781 35.066406 12.933594 39.199219 18 39.199219 L 30 39.199219 C 35.066406 39.199219 39.199219 35.066406 39.199219 30 L 39.199219 18 C 39.199219 12.933594 35.066406 8.800781 30 8.800781 Z M 18 11.199219 L 30 11.199219 C 33.769531 11.199219 36.800781 14.230469 36.800781 18 L 36.800781 30 C 36.800781 33.769531 33.769531 36.800781 30 36.800781 L 18 36.800781 C 14.230469 36.800781 11.199219 33.769531 11.199219 30 L 11.199219 18 C 11.199219 14.230469 14.230469 11.199219 18 11.199219 Z M 32 14.398438 C 31.117188 14.398438 30.398438 15.117188 30.398438 16 C 30.398438 16.882812 31.117188 17.601562 32 17.601562 C 32.882812 17.601562 33.601562 16.882812 33.601562 16 C 33.601562 15.117188 32.882812 14.398438 32 14.398438 Z M 24 16 C 19.597656 16 16 19.597656 16 24 C 16 28.402344 19.597656 32 24 32 C 28.402344 32 32 28.402344 32 24 C 32 19.597656 28.402344 16 24 16 Z M 24 18.398438 C 27.105469 18.398438 29.601562 20.894531 29.601562 24 C 29.601562 27.105469 27.105469 29.601562 24 29.601562 C 20.894531 29.601562 18.398438 27.105469 18.398438 24 C 18.398438 20.894531 20.894531 18.398438 24 18.398438 Z M 24 18.398438 "/>
</g>
</svg>
