<?xml version="1.0" encoding="UTF-8"?>
<svg xmlns="http://www.w3.org/2000/svg" xmlns:xlink="http://www.w3.org/1999/xlink" viewBox="0 0 48 48" width="48px" height="48px">
<g id="surface4845393">
<path style=" stroke:none;fill-rule:nonzero;fill:rgb(1.960784%,14.901961%,23.137255%);fill-opacity:1;" d="M 24 48 C 10.746094 48 0 37.253906 0 24 C 0 10.746094 10.746094 0 24 0 C 37.253906 0 48 10.746094 48 24 C 48 37.253906 37.253906 48 24 48 Z M 24 48 "/>
<path style=" stroke:none;fill-rule:nonzero;fill:rgb(100%,100%,100%);fill-opacity:1;" d="M 24 8 C 15.179688 8 8 15.175781 8 23.996094 C 8 26.617188 8.691406 29.066406 9.808594 31.25 L 8.074219 37.460938 C 7.671875 38.902344 9.097656 40.328125 10.539062 39.925781 L 16.753906 38.191406 C 18.9375 39.308594 21.382812 40 24 40 C 32.820312 40 40 32.820312 40 24 C 40 15.175781 32.820312 8 24 8 Z M 24 10.398438 C 31.523438 10.398438 37.601562 16.472656 37.601562 23.996094 C 37.601562 31.523438 31.523438 37.597656 24 37.597656 C 21.597656 37.597656 19.351562 36.972656 17.394531 35.882812 C 17.117188 35.730469 16.792969 35.691406 16.488281 35.773438 L 10.578125 37.421875 L 12.226562 31.515625 C 12.3125 31.210938 12.273438 30.886719 12.121094 30.609375 C 11.027344 28.648438 10.398438 26.402344 10.398438 23.996094 C 10.398438 16.472656 16.476562 10.398438 24 10.398438 Z M 18.59375 16.800781 C 18.335938 16.800781 17.925781 16.894531 17.574219 17.277344 C 17.222656 17.660156 16.234375 18.582031 16.234375 20.460938 C 16.234375 22.34375 17.605469 24.15625 17.796875 24.414062 C 17.984375 24.667969 20.4375 28.648438 24.320312 30.179688 C 27.550781 31.453125 28.207031 31.199219 28.90625 31.136719 C 29.605469 31.074219 31.167969 30.210938 31.484375 29.320312 C 31.804688 28.425781 31.804688 27.664062 31.710938 27.507812 C 31.617188 27.347656 31.359375 27.25 30.976562 27.058594 C 30.597656 26.867188 28.71875 25.945312 28.367188 25.816406 C 28.019531 25.691406 27.761719 25.625 27.507812 26.007812 C 27.253906 26.390625 26.523438 27.25 26.296875 27.503906 C 26.074219 27.761719 25.851562 27.792969 25.46875 27.601562 C 25.085938 27.410156 23.859375 27.007812 22.398438 25.703125 C 21.261719 24.691406 20.496094 23.441406 20.273438 23.058594 C 20.050781 22.679688 20.25 22.46875 20.441406 22.28125 C 20.613281 22.109375 20.824219 21.832031 21.015625 21.609375 C 21.203125 21.386719 21.265625 21.230469 21.394531 20.976562 C 21.519531 20.722656 21.457031 20.496094 21.363281 20.304688 C 21.265625 20.113281 20.523438 18.222656 20.183594 17.46875 C 19.898438 16.832031 19.597656 16.820312 19.324219 16.808594 C 19.101562 16.800781 18.847656 16.800781 18.59375 16.800781 Z M 18.59375 16.800781 "/>
</g>
</svg>
