<?xml version="1.0" encoding="UTF-8"?>
<svg xmlns="http://www.w3.org/2000/svg" xmlns:xlink="http://www.w3.org/1999/xlink" viewBox="0 0 48 48" width="48px" height="48px">
<g id="surface4842587">
<path style=" stroke:none;fill-rule:nonzero;fill:rgb(1.960784%,14.901961%,23.137255%);fill-opacity:1;" d="M 24 48 C 10.746094 48 0 37.253906 0 24 C 0 10.746094 10.746094 0 24 0 C 37.253906 0 48 10.746094 48 24 C 48 37.253906 37.253906 48 24 48 Z M 24 48 "/>
<path style=" stroke:none;fill-rule:nonzero;fill:rgb(100%,100%,100%);fill-opacity:1;" d="M 24 8 C 15.175781 8 8 15.175781 8 24 C 8 32.824219 15.175781 40 24 40 C 32.824219 40 40 32.824219 40 24 C 40 15.175781 32.824219 8 24 8 Z M 24 10.398438 C 31.523438 10.398438 37.601562 16.476562 37.601562 24 C 37.601562 30.703125 32.773438 36.246094 26.398438 37.375 L 26.398438 28 L 29.300781 28 C 29.703125 28 30.042969 27.699219 30.09375 27.296875 L 30.394531 24.898438 C 30.421875 24.671875 30.351562 24.441406 30.199219 24.269531 C 30.046875 24.097656 29.828125 24 29.601562 24 L 26.398438 24 L 26.398438 21.199219 C 26.398438 20.316406 27.117188 19.601562 28 19.601562 L 29.601562 19.601562 C 30.042969 19.601562 30.398438 19.242188 30.398438 18.800781 L 30.398438 16.101562 C 30.398438 15.6875 30.082031 15.339844 29.671875 15.304688 C 29.625 15.300781 28.496094 15.199219 27.066406 15.199219 C 23.542969 15.199219 21.601562 17.292969 21.601562 21.09375 L 21.601562 24 L 18.398438 24 C 17.957031 24 17.601562 24.359375 17.601562 24.800781 L 17.601562 27.199219 C 17.601562 27.640625 17.957031 28 18.398438 28 L 21.601562 28 L 21.601562 37.375 C 15.226562 36.246094 10.398438 30.703125 10.398438 24 C 10.398438 16.476562 16.476562 10.398438 24 10.398438 Z M 24 10.398438 "/>
</g>
</svg>
